<svg width="25" height="25" viewBox="0 0 25 25" fill="none" xmlns="http://www.w3.org/2000/svg">
<path fill-rule="evenodd" clip-rule="evenodd" d="M12.6022 0.900513C6.14822 0.900513 0.900543 6.14819 0.900543 12.6022C0.900543 19.0561 6.14822 24.3038 12.6022 24.3038C19.0561 24.3038 24.3038 19.0561 24.3038 12.6022C24.3038 6.14819 19.0561 0.900513 12.6022 0.900513ZM12.6022 2.42681C18.2304 2.42681 22.7775 6.97392 22.7775 12.6022C22.7775 18.2304 18.2304 22.7775 12.6022 22.7775C6.97395 22.7775 2.42684 18.2304 2.42684 12.6022C2.42684 6.97392 6.97395 2.42681 12.6022 2.42681ZM8.27766 7.76887C7.43502 7.76887 6.75136 8.45252 6.75136 9.29517C6.75136 10.1378 7.43502 10.8215 8.27766 10.8215C9.12031 10.8215 9.80396 10.1378 9.80396 9.29517C9.80396 8.45252 9.12031 7.76887 8.27766 7.76887ZM16.9267 7.76887C16.0841 7.76887 15.4004 8.45252 15.4004 9.29517C15.4004 10.1378 16.0841 10.8215 16.9267 10.8215C17.7693 10.8215 18.453 10.1378 18.453 9.29517C18.453 8.45252 17.7693 7.76887 16.9267 7.76887ZM6.92638 14.8916C6.25267 14.9224 6.06287 15.615 6.36992 16.0761C7.73425 18.1171 10.0198 19.4706 12.6023 19.4706C15.1848 19.4706 17.4704 18.1172 18.8347 16.0761C19.0573 15.7432 18.9609 15.2414 18.628 15.0188C18.2951 14.7962 17.7854 14.8926 17.5628 15.2255C16.4608 16.874 14.6542 17.9443 12.6023 17.9443C10.5505 17.9443 8.74382 16.8741 7.64183 15.2255C7.43515 14.983 7.17181 14.8777 6.92638 14.8916Z" fill="#747474" stroke="#747474" stroke-width="0.25"/>
</svg>
