<svg width="12" height="15" viewBox="0 0 12 15" fill="none" xmlns="http://www.w3.org/2000/svg">
<path fill-rule="evenodd" clip-rule="evenodd" d="M2.4706 12.9999H6.99359C8.55083 12.9999 9.53949 12.0486 9.53949 10.5641C9.53949 8.79384 8.11449 8.29898 6.59369 8.29898H2.4706V12.9999ZM2.4706 6.77642H6.082C8.13296 6.77642 8.96993 6.03438 8.96993 4.60654C8.96993 2.72209 7.64047 2.45616 6.082 2.45616H2.4706V6.77642ZM0.666626 0.93335H5.5868C6.78453 0.93335 8.36122 0.933349 9.17801 1.42821C10.0711 1.96105 10.7734 2.93177 10.7734 4.26439C10.7734 5.71072 10.0145 6.79566 8.76014 7.30902V7.34725C10.4329 7.68966 11.344 8.94604 11.344 10.6213C11.344 12.619 9.91871 14.5227 7.22136 14.5227H0.666626V0.93335Z" fill="#7F7F7F"/>
</svg>
