<svg width="25" height="25" viewBox="0 0 25 25" fill="none" xmlns="http://www.w3.org/2000/svg">
<path fill-rule="evenodd" clip-rule="evenodd" d="M23.3291 0.900146H20.4026C15.5279 0.900146 11.6269 4.80118 11.6269 9.67679V10.067C9.96944 8.11602 7.53163 6.75215 4.80118 6.75215H1.87563C1.29034 6.75215 0.900146 7.14144 0.900146 7.72673V10.6523C0.900146 15.5279 4.80118 19.428 9.67679 19.428H11.6278V23.3291C11.6278 23.9134 12.017 24.3045 12.6023 24.3045C13.1876 24.3045 13.5778 23.9134 13.5778 23.3291V17.478H15.5279C20.4035 17.478 24.3036 13.5769 24.3036 8.70131V1.87563C24.3036 1.29034 23.9134 0.900146 23.3281 0.900146H23.3291ZM9.67679 17.478C5.87421 17.478 2.85111 14.4549 2.85111 10.6523V8.70131H4.80118C8.60376 8.70131 11.6269 11.7244 11.6269 15.5279V17.478H9.67679ZM22.3536 8.70131C22.3536 12.5048 19.3305 15.5279 15.5279 15.5279H13.5769V9.67679C13.5769 5.87421 16.6 2.85111 20.4035 2.85111H22.3536V8.70131Z" fill="#747474"/>
</svg>
