<svg width="15" height="19" viewBox="0 0 15 19" fill="none" xmlns="http://www.w3.org/2000/svg">
<path d="M9.93888 7.37456V2.13868H10.701C10.918 2.13868 11.0936 1.9884 11.0936 1.80269C11.0936 1.61695 10.918 1.46667 10.701 1.46667H9.54634H6.18698H5.03233C4.81536 1.46667 4.63976 1.61695 4.63976 1.80269C4.63976 1.9884 4.81536 2.13868 5.03233 2.13868H5.79444V7.37456C3.15312 8.13122 1.33333 10.2745 1.33333 12.6744C1.33333 15.7582 4.26408 18.2667 7.86646 18.2667C11.4692 18.2667 14.4 15.7582 14.4 12.6744C14.4 10.2745 12.5802 8.13122 9.93888 7.37456ZM7.86646 17.5947C4.69689 17.5947 2.11844 15.3874 2.11844 12.6744C2.11844 10.4881 3.8355 8.54369 6.29432 7.94551C6.463 7.90449 6.57955 7.77259 6.57955 7.62232V2.13868H9.15377V7.62232C9.15377 7.77259 9.27033 7.90449 9.439 7.94551C11.8978 8.54369 13.6149 10.4882 13.6149 12.6744C13.6149 15.3874 11.0361 17.5947 7.86646 17.5947Z" fill="#747474" stroke="#747474"/>
</svg>
