<svg width="24" height="24" viewBox="0 0 24 24" fill="none" xmlns="http://www.w3.org/2000/svg">
<path fill-rule="evenodd" clip-rule="evenodd" d="M0.833864 13.2726C0.56271 13.2726 0.343255 13.0629 0.343255 12.8038C0.334687 10.2436 1.34262 7.77513 3.16301 5.89709C4.98439 4.01821 7.4821 2.87001 10.1544 2.68225L8.68273 1.27584C8.48631 1.09088 8.4844 0.788723 8.67794 0.601013C8.87147 0.413308 9.18765 0.410561 9.38406 0.596435L11.6605 2.79945C11.8502 2.98258 11.8502 3.27742 11.6605 3.46054L9.38406 5.65898C9.19148 5.84394 8.87914 5.84577 8.68559 5.66173C8.49109 5.47768 8.49013 5.17827 8.68271 4.9933L10.0959 3.62901C7.69584 3.82861 5.4624 4.88344 3.83842 6.58202C2.21346 8.28144 1.31673 10.5019 1.32433 12.8038C1.32433 12.9283 1.27259 13.0473 1.18061 13.1352C1.08864 13.2231 0.964082 13.2726 0.833768 13.2726H0.833864ZM15.6194 20.7735C13.5441 21.9308 11.0857 22.2889 8.74405 21.7761C6.40239 21.2633 4.3531 19.9173 3.01168 18.0118L4.9346 18.509C5.06203 18.5465 5.19999 18.5328 5.31593 18.4715C5.43282 18.4092 5.51809 18.3057 5.55259 18.183C5.58708 18.0603 5.56791 17.9294 5.49989 17.8204C5.43091 17.7115 5.31976 17.6327 5.19042 17.6043L2.07467 16.8123C1.94916 16.7794 1.81502 16.7968 1.70197 16.859C1.58891 16.9213 1.50556 17.0238 1.47202 17.1447L0.642302 20.1453C0.574277 20.3953 0.72949 20.6507 0.991061 20.7176C1.03322 20.7222 1.07633 20.7222 1.11849 20.7176C1.34652 20.7249 1.54964 20.5811 1.60904 20.3705L2.14846 18.4248C3.61053 20.5656 5.87838 22.0874 8.48151 22.6743C11.0856 23.2603 13.8258 22.8675 16.1339 21.5755C16.2632 21.5197 16.3619 21.4135 16.4031 21.2834C16.4443 21.1543 16.4252 21.0143 16.3495 20.8989C16.2748 20.7835 16.1512 20.7057 16.0113 20.6846C15.8704 20.6626 15.7277 20.7011 15.6194 20.7872L15.6194 20.7735ZM22.9088 17.098C22.8743 16.9781 22.7919 16.8755 22.6779 16.8142C22.5648 16.7529 22.4307 16.7373 22.3052 16.7703L20.2845 17.2903C21.463 14.982 21.6891 12.3348 20.9159 9.87454C20.1427 7.41518 18.4286 5.32384 16.1149 4.01821C16.0018 3.94954 15.8648 3.92848 15.7345 3.95869C15.6051 3.98891 15.494 4.06857 15.4269 4.17936C15.3599 4.29016 15.3436 4.42202 15.38 4.5447C15.4173 4.6674 15.5055 4.76995 15.6243 4.82946C17.7025 6.00239 19.2488 7.87388 19.9618 10.0789C20.6736 12.2838 20.5002 14.6627 19.475 16.7512L18.9845 14.9044C18.9577 14.7771 18.8781 14.6663 18.7632 14.5985C18.6482 14.5299 18.5093 14.5097 18.378 14.5427C18.2477 14.5756 18.1366 14.659 18.0724 14.7725C18.0072 14.886 17.9948 15.0206 18.0379 15.1433L18.8714 18.1484C18.905 18.2692 18.9874 18.3727 19.1004 18.435C19.2144 18.4974 19.3486 18.5137 19.475 18.4808L22.5851 17.6741V17.675C22.8391 17.5981 22.9828 17.3426 22.909 17.0982L22.9088 17.098Z" fill="#747474" stroke="#747474" stroke-width="0.55"/>
</svg>
