<svg width="20" height="22" viewBox="0 0 20 22" fill="none" xmlns="http://www.w3.org/2000/svg">
<path d="M11.6676 3.58845L11.0347 3.49377L10.7529 2.93299C10.6007 2.63169 10.2901 2.44326 9.94977 2.44033C9.60662 2.43711 9.2981 2.62241 9.14494 2.91883L8.85924 3.47628L8.22543 3.55982C7.88567 3.60482 7.60573 3.83066 7.50011 4.14803C7.39449 4.46539 7.48053 4.8076 7.72683 5.04464L8.18377 5.48307L8.07527 6.09575C8.01806 6.42571 8.15349 6.7534 8.43213 6.95067C8.56492 7.0444 8.71667 7.1007 8.86983 7.1168C9.04062 7.13475 9.21658 7.10351 9.3769 7.02463L9.94468 6.73895L10.5125 7.03325C10.8159 7.1909 11.1805 7.16915 11.459 6.97506C11.7373 6.7819 11.8749 6.45569 11.8166 6.1258L11.7087 5.51007L12.1668 5.0796C12.4136 4.84747 12.5012 4.50568 12.3947 4.18854C12.2865 3.86935 12.0085 3.6393 11.6676 3.58845ZM10.7941 4.97005C10.6743 5.08321 10.6175 5.24805 10.6445 5.41136L10.7518 6.03358L10.1796 5.73601C10.0302 5.65743 9.85208 5.6556 9.70133 5.73267L9.12667 6.02138L9.23883 5.40064C9.26807 5.23854 9.21299 5.07509 9.09099 4.95903L8.62598 4.51694L9.26751 4.43139C9.43507 4.40865 9.58063 4.30945 9.65531 4.16152L9.94448 3.59785L10.2303 4.1647C10.3057 4.3134 10.4497 4.41582 10.6171 4.43997L11.2583 4.53553L10.7941 4.97005ZM17.6292 5.11973L17.1713 5.54834L17.2796 6.16035C17.3375 6.49303 17.2003 6.81646 16.9218 7.01055C16.6434 7.20464 16.2813 7.22946 15.9769 7.07172L15.4101 6.77751L14.8423 7.0632C14.6787 7.14642 14.5021 7.17478 14.3322 7.15693C14.1763 7.14054 14.0244 7.08516 13.8901 6.98846C13.6136 6.78859 13.4782 6.46091 13.5388 6.13412L13.5637 5.98658C13.6109 5.71564 13.8742 5.53215 14.1561 5.58243C14.4052 5.62362 14.5803 5.83254 14.5839 6.06566L15.1687 5.7705C15.319 5.69715 15.4972 5.69805 15.6469 5.77384L16.2199 6.07244L16.11 5.449C16.0801 5.28632 16.136 5.12046 16.2595 5.00861L16.7254 4.57614L16.085 4.48069C15.9168 4.45643 15.7727 4.35401 15.6982 4.20541L15.4115 3.63847L15.1221 4.20492C15.0475 4.35193 14.9027 4.45215 14.7353 4.47396L14.0832 4.56215C14.2178 4.75461 14.2005 5.01744 14.0294 5.18996C13.8331 5.388 13.508 5.39137 13.303 5.19902L13.1929 5.09454C12.944 4.85535 12.8589 4.51324 12.9643 4.19773C13.0699 3.88037 13.3468 3.65702 13.6852 3.60718L14.3236 3.52413L14.6092 2.9676C14.7597 2.66997 15.068 2.48652 15.4105 2.48779C15.7547 2.48925 16.0654 2.67675 16.2166 2.97888L16.5011 3.53996L17.134 3.63463C17.4725 3.68241 17.7506 3.91153 17.8568 4.23145C17.9654 4.546 17.8779 4.88779 17.6292 5.11973ZM6.92516 4.14485C6.81885 3.82585 6.54177 3.5959 6.19989 3.54495L5.56699 3.45027L5.28517 2.89042C5.13392 2.58828 4.82514 2.40098 4.48302 2.39693C4.13988 2.39371 3.83042 2.57891 3.6781 2.87635L3.39249 3.43288L2.75869 3.51642C2.418 3.56132 2.13898 3.78726 2.03337 4.10463C1.92775 4.42199 2.01285 4.7641 2.25916 5.00114L2.71703 5.43967L2.60852 6.05235C2.55039 6.38222 2.68674 6.71 2.96538 6.90727C3.09715 7.00183 3.24992 7.0573 3.40215 7.0733C3.57387 7.09135 3.74984 7.0601 3.91006 6.98216L4.47803 6.69462L5.04287 6.99048C5.34631 7.14813 5.71085 7.12638 5.98933 6.9323C6.26781 6.73821 6.40533 6.412 6.34709 6.0821L6.2382 5.46628L6.69637 5.03581C6.9429 4.80646 7.03044 4.46467 6.92516 4.14485ZM5.32862 4.93241C5.20881 5.04557 5.15309 5.20958 5.17911 5.37279L5.28722 5.99604L4.71422 5.69745C4.56482 5.61887 4.3866 5.61796 4.23595 5.6941L3.66129 5.98281L3.77336 5.363C3.80353 5.201 3.74752 5.03745 3.62551 4.92139L3.16154 4.47847L3.80296 4.39385C3.97052 4.37111 4.11526 4.27089 4.18983 4.12388L4.479 3.56022L4.76581 4.12623C4.84028 4.27483 4.98437 4.37725 5.15252 4.40243L5.79285 4.49789L5.32862 4.93241ZM18.4064 14.574C18.5086 14.3163 18.3764 14.0293 18.1101 13.9291C17.8448 13.828 17.5472 13.9544 17.4478 14.2123C17.2721 14.6603 17.0586 15.0667 16.7987 15.4504L16.8077 9.17675L18.2987 9.188C18.217 10.7241 18.0787 11.8977 17.8656 12.8448C17.8063 13.1144 17.979 13.3813 18.2573 13.4396C18.2774 13.4446 18.295 13.4464 18.3155 13.4486C18.5716 13.4755 18.813 13.3132 18.8674 13.0636C19.1152 11.956 19.2714 10.5769 19.3495 8.72691L19.3526 8.6972C19.3531 8.69256 19.3508 8.68763 19.3511 8.68484C19.4321 6.83331 19.4428 4.57083 19.4472 2.01958C19.4481 1.61894 19.2886 1.24275 18.9959 0.956714C18.7068 0.671068 18.32 0.512161 17.9074 0.509148L15.0745 0.487317C14.7903 0.485603 14.5607 0.706405 14.5598 0.982229C14.559 1.25805 14.7861 1.48181 15.0729 1.48475L17.9048 1.50648C18.0425 1.50876 18.1732 1.56003 18.269 1.65738C18.3678 1.75316 18.4193 1.87964 18.4204 2.01208C18.4174 4.35325 18.4068 6.44494 18.3414 8.19301L11.2098 8.1398L8.6713 8.12169L8.66851 8.12139L8.66573 8.1211L6.12943 8.09947L6.11922 8.09839L3.58346 8.08057L1.5373 8.06541C1.50967 7.26574 1.49385 6.38942 1.48681 5.39389C1.48486 5.11778 1.25556 4.89753 0.968594 4.89553C0.685149 4.89577 0.457042 5.11955 0.45899 5.39567C0.468215 6.58474 0.489676 7.61275 0.524019 8.53607L0.521677 8.55834C0.522413 8.57813 0.525836 8.59914 0.528721 8.61633C0.71312 13.1479 1.38655 15.2946 3.18628 17.0829C3.18887 17.0851 3.19166 17.0853 3.19415 17.0884C3.1985 17.0917 3.20079 17.0966 3.20617 17.0991C3.85626 17.7446 4.66614 18.3609 5.83057 19.0951C6.64893 19.6128 7.58729 20.1497 8.39685 20.6083L9.15429 21.0361C9.34468 21.1443 9.55471 21.2087 9.76634 21.2309C10.081 21.264 10.4047 21.2023 10.6845 21.0496C10.95 20.9067 11.2024 20.7652 11.4495 20.6279C12.5563 20.0179 13.3485 19.5615 14.0164 19.1531C15.1834 18.4339 15.9959 17.8296 16.6492 17.1944C17.4489 16.416 18.0086 15.5823 18.4074 14.5741L18.4064 14.574ZM11.7224 9.13871L13.2386 9.15074L13.2241 18.4589C12.7933 18.7186 12.3019 19.0001 11.7063 19.3364L11.7224 9.13871ZM1.5761 9.06239L3.06524 9.07344L3.05694 15.3491C2.13702 13.9761 1.73429 12.1826 1.57703 9.06249L1.5761 9.06239ZM9.66618 20.1749L9.16388 19.8912L9.16754 17.6956C9.16828 17.4207 8.93575 17.1954 8.65436 17.194C8.3712 17.1915 8.14153 17.4123 8.1406 17.689L8.13846 19.3077C7.62951 19.0158 7.11192 18.708 6.62207 18.4041L6.63084 12.99C6.63158 12.7151 6.40184 12.4901 6.11776 12.4875C5.83358 12.4858 5.60391 12.7066 5.604 12.9825L5.59649 17.7416C4.9803 17.3184 4.49327 16.934 4.0827 16.5455L4.09457 9.08403L5.60896 9.09585L5.60449 11.451C5.60273 11.7089 5.8054 11.9235 6.06623 11.9509C6.08387 11.9527 6.09872 11.9543 6.11758 11.9535C6.40073 11.956 6.6304 11.7352 6.63134 11.4585L6.6358 9.10336L8.15308 9.11456L8.14227 16.2177C8.14143 16.4757 8.34328 16.6893 8.60411 16.7167C8.62267 16.7186 8.63752 16.7202 8.65536 16.7202C8.93953 16.7219 9.16921 16.5011 9.17004 16.2253L9.17992 9.12206L10.6952 9.13399L10.6778 19.9077L10.1767 20.1835C10.0206 20.2675 9.82472 20.2648 9.66618 20.1749ZM14.253 17.804L14.2667 9.15556L15.7812 9.16646L15.7681 16.6306C15.3562 17.0134 14.8699 17.3903 14.253 17.804ZM0.449741 1.87635C0.452152 1.04981 1.14361 0.38203 1.99214 0.389567L12.1684 0.46623C12.4579 0.471314 12.6823 0.692924 12.6815 0.968747C12.6806 1.24457 12.451 1.46537 12.1668 1.46366L1.99156 1.38617C1.70748 1.38352 1.47752 1.60711 1.47668 1.88293L1.47663 2.49951C1.47656 2.99126 1.47556 3.46508 1.47763 3.91859C1.47865 4.1946 1.24889 4.41633 0.965441 4.41657C0.946682 4.41648 0.929045 4.41463 0.911409 4.41277C0.653364 4.38565 0.451324 4.17391 0.449378 3.91562L0.448861 2.4919L0.449839 1.87543L0.449741 1.87635ZM13.109 1.01744C13.1049 0.985095 13.1067 0.949628 13.1102 0.91714C13.1135 0.885581 13.1188 0.853288 13.1296 0.821581C13.1401 0.792658 13.1519 0.761049 13.1671 0.732614C13.1832 0.704277 13.2012 0.676135 13.2254 0.65146C13.2456 0.628252 13.2689 0.60348 13.2972 0.583934C13.3218 0.563998 13.35 0.546309 13.3799 0.529743C13.4096 0.515034 13.439 0.503109 13.4737 0.494554C13.5056 0.485707 13.5373 0.478716 13.5715 0.474802C13.741 0.459778 13.9116 0.533079 14.0166 0.659543C14.0402 0.684552 14.0578 0.713617 14.0738 0.74063C14.0875 0.770233 14.1031 0.800958 14.112 0.83193C14.1219 0.862999 14.1287 0.89656 14.1301 0.927679C14.1352 0.960116 14.1345 0.992897 14.1312 1.02446C14.1278 1.05694 14.1213 1.09192 14.1106 1.1227C14.1019 1.15182 14.0882 1.18323 14.073 1.2126C14.0569 1.24001 14.0352 1.26776 14.0147 1.29375C13.9945 1.31603 13.9712 1.34173 13.9428 1.36128C13.8394 1.44332 13.7031 1.48154 13.5676 1.4673C13.5351 1.46388 13.502 1.45759 13.469 1.44943C13.4364 1.4385 13.4069 1.42414 13.3775 1.40978C13.3463 1.39337 13.3191 1.37549 13.2931 1.35493C13.267 1.3353 13.2434 1.31029 13.2235 1.28567C13.1998 1.26066 13.1823 1.23067 13.1663 1.20458C13.1497 1.17469 13.1371 1.14332 13.1272 1.11226C13.1182 1.08128 13.1133 1.04792 13.109 1.01744Z" fill="#747474"/>
</svg>
